<?xml version="1.0" encoding="UTF-8"?>
<svg id="Livello_2" data-name="Livello 2" xmlns="http://www.w3.org/2000/svg" xmlns:xlink="http://www.w3.org/1999/xlink" viewBox="0 0 298.14 188.66">
  <defs>
    <style>
      .cls-1 {
        fill: url(#Sfumatura_senza_nome_15);
      }

      .cls-2 {
        fill: url(#Sfumatura_senza_nome_15-2);
      }

      .cls-3 {
        fill: url(#Sfumatura_senza_nome_15-4);
      }

      .cls-4 {
        fill: url(#Sfumatura_senza_nome_15-3);
      }

      .cls-5 {
        fill: #fff9cf;
      }
    </style>
    <linearGradient id="Sfumatura_senza_nome_15" data-name="Sfumatura senza nome 15" x1=".04" y1="188.66" x2=".04" y2="0" gradientUnits="userSpaceOnUse">
      <stop offset="0" stop-color="#e2af11"/>
      <stop offset=".68" stop-color="#fff9ce"/>
      <stop offset=".92" stop-color="#fbd500"/>
    </linearGradient>
    <linearGradient id="Sfumatura_senza_nome_15-2" data-name="Sfumatura senza nome 15" x1="153.94" y1="188.66" x2="153.94" y2="0" xlink:href="#Sfumatura_senza_nome_15"/>
    <linearGradient id="Sfumatura_senza_nome_15-3" data-name="Sfumatura senza nome 15" x1="26.37" x2="26.37" xlink:href="#Sfumatura_senza_nome_15"/>
    <linearGradient id="Sfumatura_senza_nome_15-4" data-name="Sfumatura senza nome 15" x1="24.01" x2="24.01" xlink:href="#Sfumatura_senza_nome_15"/>
  </defs>
  <g id="Livello_1-2" data-name="Livello 1">
    <g>
      <path class="cls-1" d="M.08,163.09c-.04-.55-.07-1.1-.07-1.66,0,.56.03,1.11.07,1.66Z"/>
      <path class="cls-2" d="M270.63,0H41c1.35.03,2.77.05,4.27.06,13.87.08,29.44,9.25,29.44,27.74,0,6.33-1.95,13.88-6.57,22.63l-51.35,95.4c-4.14,7.54-7.06,14.12-7.06,18.98,0,6.33,5.35,10.46,9.49,10.46,5.11,0,12.17-5.35,24.58-14.84l22.39-17.28c9.25-7.06,17.76-9.98,25.06-9.98,16.06,0,26.77,13.87,26.77,27.74s-10.46,27.74-36.02,27.74h188.62c15.19,0,27.51-12.31,27.51-27.51V27.51c0-15.19-12.31-27.51-27.51-27.51Z"/>
      <path class="cls-4" d="M27.25,188.65c-.59,0-1.17-.03-1.74-.07.58.04,1.16.07,1.74.07Z"/>
      <path class="cls-3" d="M24.88,188.53c-.59-.06-1.17-.13-1.75-.22.58.09,1.16.17,1.75.22Z"/>
      <path class="cls-5" d="M23.14,188.31c-.2-.03-.39-.07-.59-.11.2.04.39.07.59.11Z"/>
      <path class="cls-5" d="M27.4,188.66h.11c-.09,0-.17,0-.26,0,.05,0,.1,0,.15,0Z"/>
      <path class="cls-5" d="M25.5,188.58c-.21-.02-.41-.03-.62-.05.21.02.41.03.62.05Z"/>
      <path class="cls-5" d="M0,161.26c0,.06,0,.11,0,.17,0-.09,0-.18,0-.27v.1Z"/>
      <path class="cls-5" d="M118.03,160.92c0-13.88-10.71-27.74-26.77-27.74-7.3,0-15.82,2.92-25.06,9.98l-22.39,17.28c-12.41,9.49-19.47,14.84-24.58,14.84-4.14,0-9.49-4.14-9.49-10.46,0-4.86,2.92-11.44,7.06-18.98l51.35-95.4c4.62-8.76,6.57-16.3,6.57-22.63C74.71,9.3,59.14.14,45.27.06c-1.5,0-2.91-.03-4.27-.06h-13.5C12.94,0,1.02,11.33.07,25.65c-.03.52-.06,1.04-.06,1.56,0,.1,0,.19,0,.29v133.65c0,.09,0,.18,0,.27,0,.56.03,1.11.07,1.66.02.23.03.45.05.68.05.55.12,1.1.2,1.65.04.24.08.48.13.72.07.38.15.76.23,1.14.05.24.1.48.17.71.13.5.27.99.42,1.47.12.38.25.76.38,1.14,0,0,0,.02,0,.03,2.75,7.49,8.66,13.45,16.12,16.27.15.06.3.11.45.17.24.08.48.16.71.24.56.18,1.13.36,1.71.5.12.03.23.05.35.08.51.12,1.02.23,1.53.32.2.04.39.07.59.11.58.09,1.16.17,1.75.22.21.02.41.03.62.05.58.04,1.16.07,1.74.07.09,0,.17,0,.26,0h54.51c25.56,0,36.02-13.87,36.02-27.74Z"/>
    </g>
  </g>
</svg>